<svg width="34" height="30" viewBox="0 0 34 30" fill="none" xmlns="http://www.w3.org/2000/svg">
<path d="M25 19H9" stroke="#33363F" stroke-width="2" stroke-linecap="round"/>
<path d="M17 9L17.2865 10.0038L18.299 9.75L17.5729 10.5L18.299 11.25L17.2865 10.9962L17 12L16.7135 10.9962L15.701 11.25L16.4271 10.5L15.701 9.75L16.7135 10.0038L17 9Z" stroke="#33363F" stroke-width="2" stroke-linecap="round" stroke-linejoin="round"/>
<path d="M10.5 9L10.7865 10.0038L11.799 9.75L11.0729 10.5L11.799 11.25L10.7865 10.9962L10.5 12L10.2135 10.9962L9.20096 11.25L9.92705 10.5L9.20096 9.75L10.2135 10.0038L10.5 9Z" stroke="#33363F" stroke-width="2" stroke-linecap="round" stroke-linejoin="round"/>
<path d="M23.5 9L23.7865 10.0038L24.799 9.75L24.0729 10.5L24.799 11.25L23.7865 10.9962L23.5 12L23.2135 10.9962L22.201 11.25L22.9271 10.5L22.201 9.75L23.2135 10.0038L23.5 9Z" stroke="#33363F" stroke-width="2" stroke-linecap="round" stroke-linejoin="round"/>
</svg>
