<svg width="42" height="42" viewBox="0 0 42 42" fill="none" xmlns="http://www.w3.org/2000/svg">
<path d="M7 36.75C6.0375 36.75 5.21354 36.4073 4.52812 35.7219C3.84271 35.0365 3.5 34.2125 3.5 33.25V8.75C3.5 7.7875 3.84271 6.96354 4.52812 6.27812C5.21354 5.59271 6.0375 5.25 7 5.25H31.5C32.4625 5.25 33.2865 5.59271 33.9719 6.27812C34.6573 6.96354 35 7.7875 35 8.75V12.25H38.5V15.75H35V19.25H38.5V22.75H35V26.25H38.5V29.75H35V33.25C35 34.2125 34.6573 35.0365 33.9719 35.7219C33.2865 36.4073 32.4625 36.75 31.5 36.75H7ZM7 33.25H31.5V8.75H7V33.25ZM10.5 29.75H19.25V22.75H10.5V29.75ZM21 17.5H28V12.25H21V17.5ZM10.5 21H19.25V12.25H10.5V21ZM21 29.75H28V19.25H21V29.75Z" fill="#096ECB"/>
</svg>
