<svg width="25" height="25" viewBox="0 0 25 25" fill="none" xmlns="http://www.w3.org/2000/svg">
<path d="M5.59351 19.3926H7.01851L16.7935 9.61758L15.3685 8.19258L5.59351 17.9676V19.3926ZM3.59351 21.3926V17.1426L16.7935 3.96758C16.9935 3.78424 17.2143 3.64258 17.456 3.54258C17.6977 3.44258 17.9518 3.39258 18.2185 3.39258C18.4852 3.39258 18.7435 3.44258 18.9935 3.54258C19.2435 3.64258 19.4602 3.79258 19.6435 3.99258L21.0185 5.39258C21.2185 5.57591 21.3643 5.79258 21.456 6.04258C21.5477 6.29258 21.5935 6.54258 21.5935 6.79258C21.5935 7.05924 21.5477 7.31341 21.456 7.55508C21.3643 7.79674 21.2185 8.01758 21.0185 8.21758L7.84351 21.3926H3.59351ZM16.0685 8.91758L15.3685 8.19258L16.7935 9.61758L16.0685 8.91758Z" fill="#096ECB"/>
</svg>
