<svg width="20" height="20" viewBox="0 0 60 60" fill="none" xmlns="http://www.w3.org/2000/svg">
<path d="M3.5 30.8332V26.2082H7V9.24984C7 8.40192 7.34271 7.67605 8.02812 7.07223C8.71354 6.46841 9.5375 6.1665 10.5 6.1665H36.75V9.24984H10.5V26.2082H21V30.8332H3.5ZM26.25 30.8332C25.7542 30.8332 25.3385 30.6854 25.0031 30.3899C24.6677 30.0945 24.5 29.7283 24.5 29.2915V13.8748C24.5 13.438 24.6677 13.0719 25.0031 12.7764C25.3385 12.4809 25.7542 12.3332 26.25 12.3332H36.75C37.2458 12.3332 37.6615 12.4809 37.9969 12.7764C38.3323 13.0719 38.5 13.438 38.5 13.8748V29.2915C38.5 29.7283 38.3323 30.0945 37.9969 30.3899C37.6615 30.6854 37.2458 30.8332 36.75 30.8332H26.25ZM28 26.2082H35V15.4165H28V26.2082Z" fill="#096ECB"/>
</svg>
