<svg width="29" height="30" viewBox="0 0 29 30" fill="none" xmlns="http://www.w3.org/2000/svg">
<path d="M2.41667 26.5C1.75208 26.5 1.18316 26.2552 0.709896 25.7656C0.236632 25.276 0 24.6875 0 24V6.5C0 5.8125 0.236632 5.22396 0.709896 4.73438C1.18316 4.24479 1.75208 4 2.41667 4H19.3333C19.9979 4 20.5668 4.24479 21.0401 4.73438C21.5134 5.22396 21.75 5.8125 21.75 6.5V9H24.1667V11.5H21.75V14H24.1667V16.5H21.75V19H24.1667V21.5H21.75V24C21.75 24.6875 21.5134 25.276 21.0401 25.7656C20.5668 26.2552 19.9979 26.5 19.3333 26.5H2.41667ZM2.41667 24H19.3333V6.5H2.41667V24ZM4.83333 21.5H10.875V16.5H4.83333V21.5ZM12.0833 12.75H16.9167V9H12.0833V12.75ZM4.83333 15.25H10.875V9H4.83333V15.25ZM12.0833 21.5H16.9167V14H12.0833V21.5Z" fill="#096ECB"/>
</svg>
