<svg width="39" height="40" viewBox="0 0 39 40" fill="none" xmlns="http://www.w3.org/2000/svg">
<path d="M34.125 26.667H28.4683C28.0524 26.667 27.8444 26.667 27.6581 26.7456C27.4718 26.8241 27.3266 26.973 27.0363 27.2708L24.9637 29.3965C24.6734 29.6943 24.5282 29.8432 24.3419 29.9218C24.1556 30.0003 23.9476 30.0003 23.5317 30.0003H15.4683C15.0524 30.0003 14.8444 30.0003 14.6581 29.9218C14.4718 29.8432 14.3266 29.6943 14.0363 29.3965L11.9637 27.2708C11.6734 26.973 11.5282 26.8241 11.3419 26.7456C11.1556 26.667 10.9476 26.667 10.5317 26.667H4.875" stroke="url(#paint0_linear_584_346)" stroke-width="3"/>
<path d="M34.125 20H28.4683C28.0524 20 27.8444 20 27.6581 20.0786C27.4718 20.1571 27.3266 20.306 27.0363 20.6038L24.9637 22.7295C24.6734 23.0273 24.5282 23.1762 24.3419 23.2548C24.1556 23.3333 23.9476 23.3333 23.5317 23.3333H15.4683C15.0524 23.3333 14.8444 23.3333 14.6581 23.2548C14.4718 23.1762 14.3266 23.0273 14.0363 22.7295L11.9637 20.6038C11.6734 20.306 11.5282 20.1571 11.3419 20.0786C11.1556 20 10.9476 20 10.5317 20H4.875" stroke="url(#paint1_linear_584_346)" stroke-width="3"/>
<path d="M11.375 13.3335L5.26529 18.0333C5.0192 18.2226 4.875 18.5154 4.875 18.8259V33.0002C4.875 34.1047 5.77043 35.0002 6.875 35.0002H32.125C33.2296 35.0002 34.125 34.1047 34.125 33.0002V18.8259C34.125 18.5154 33.9808 18.2226 33.7347 18.0333L27.625 13.3335" stroke="url(#paint2_linear_584_346)" stroke-width="3" stroke-linecap="round"/>
<path d="M27.625 21.6667V9.81758C27.625 9.57723 27.625 9.45705 27.5982 9.34373C27.5745 9.24326 27.5354 9.14706 27.4822 9.05856C27.4223 8.95875 27.3384 8.87271 27.1706 8.70062L24.0335 5.48304C23.8597 5.30486 23.7729 5.21578 23.6709 5.15202C23.5805 5.0955 23.4816 5.05381 23.378 5.02852C23.2611 5 23.1367 5 22.8879 5H13.775C12.9349 5 12.5149 5 12.194 5.16349C11.9118 5.3073 11.6823 5.53677 11.5385 5.81901C11.375 6.13988 11.375 6.55992 11.375 7.4V21.6667" stroke="url(#paint3_linear_584_346)" stroke-width="3"/>
<path d="M21.125 4.99984L21.125 10.0665C21.125 10.6266 21.125 10.9066 21.234 11.1205C21.3299 11.3087 21.4828 11.4616 21.671 11.5575C21.8849 11.6665 22.1649 11.6665 22.725 11.6665L27.625 11.6665" stroke="url(#paint4_linear_584_346)" stroke-width="3"/>
<defs>
<linearGradient id="paint0_linear_584_346" x1="19.5" y1="26.667" x2="19.5" y2="30.0003" gradientUnits="userSpaceOnUse">
<stop stop-color="#096ECB"/>
<stop offset="1" stop-color="#1814F3"/>
</linearGradient>
<linearGradient id="paint1_linear_584_346" x1="19.5" y1="20" x2="19.5" y2="23.3333" gradientUnits="userSpaceOnUse">
<stop stop-color="#096ECB"/>
<stop offset="1" stop-color="#1814F3"/>
</linearGradient>
<linearGradient id="paint2_linear_584_346" x1="19.5" y1="13.3335" x2="19.5" y2="35.0002" gradientUnits="userSpaceOnUse">
<stop stop-color="#096ECB"/>
<stop offset="1" stop-color="#1814F3"/>
</linearGradient>
<linearGradient id="paint3_linear_584_346" x1="19.5" y1="5" x2="19.5" y2="21.6667" gradientUnits="userSpaceOnUse">
<stop stop-color="#096ECB"/>
<stop offset="1" stop-color="#354259"/>
</linearGradient>
<linearGradient id="paint4_linear_584_346" x1="21.125" y1="8.33317" x2="27.625" y2="8.33317" gradientUnits="userSpaceOnUse">
<stop stop-color="#096ECB"/>
<stop offset="1" stop-color="#354259"/>
</linearGradient>
</defs>
</svg>
