<svg width="24" height="24" viewBox="0 0 24 24" fill="none" xmlns="http://www.w3.org/2000/svg">
<path fill-rule="evenodd" clip-rule="evenodd" d="M17.6076 21.0002L15.1344 7.81006L4 8.82228V17.8002C4 18.9203 4 19.4803 4.21799 19.9082C4.40973 20.2845 4.71569 20.5904 5.09202 20.7822C5.51984 21.0002 6.0799 21.0002 7.2 21.0002H17.6076ZM13.5 15.0296C13.5 17.188 11.3603 18.7042 10.4269 19.263C10.1623 19.4213 9.83768 19.4213 9.57313 19.263C8.63974 18.7042 6.5 17.188 6.5 15.0296C6.5 12.9119 8.19587 11.5002 10 11.5002C11.8667 11.5002 13.5 12.9119 13.5 15.0296Z" fill="url(#paint0_linear_592_467)"/>
<path d="M4.21799 4.09202C4 4.51984 4 5.0799 4 6.2V6.81385L21.9895 5.17845C21.9711 4.68953 21.9206 4.36404 21.782 4.09202C21.5903 3.71569 21.2843 3.40973 20.908 3.21799C20.4802 3 19.9201 3 18.8 3H7.2C6.0799 3 5.51984 3 5.09202 3.21799C4.71569 3.40973 4.40973 3.71569 4.21799 4.09202Z" fill="#7E869E" fill-opacity="0.25"/>
<path d="M22 7.18574L17.1352 7.62799L19.6414 20.9947C20.2329 20.9818 20.6039 20.937 20.908 20.782C21.2843 20.5903 21.5903 20.2843 21.782 19.908C22 19.4802 22 18.9201 22 17.8V7.18574Z" fill="#7E869E" fill-opacity="0.25"/>
<circle cx="10" cy="15" r="1" fill="#063688"/>
<defs>
<linearGradient id="paint0_linear_592_467" x1="10.8038" y1="7.81006" x2="10.8038" y2="21.0002" gradientUnits="userSpaceOnUse">
<stop stop-color="#096ECB"/>
<stop offset="1" stop-color="#5B059F"/>
</linearGradient>
</defs>
</svg>
