<svg width="24" height="24" viewBox="0 0 24 24" fill="none" xmlns="http://www.w3.org/2000/svg">
<path d="M19.0899 12.5899C18.9299 12.5899 18.7699 12.5399 18.6299 12.4299C14.5999 9.3199 9.38993 9.3199 5.35993 12.4299C5.02993 12.6799 4.55993 12.6199 4.30993 12.2999C4.05993 11.9699 4.11993 11.4999 4.43993 11.2499C9.02993 7.6999 14.9599 7.6999 19.5399 11.2499C19.8699 11.4999 19.9299 11.9699 19.6699 12.2999C19.5399 12.4899 19.3199 12.5899 19.0899 12.5899Z" fill="url(#paint0_linear_582_9225)"/>
<path d="M22 9.1099C21.84 9.1099 21.68 9.0599 21.54 8.9499C15.74 4.4699 8.25001 4.4699 2.46001 8.9499C2.13001 9.1999 1.66001 9.1399 1.41001 8.8199C1.15001 8.4999 1.21001 8.0199 1.54001 7.7699C7.89001 2.8599 16.1 2.8599 22.46 7.7699C22.79 8.0199 22.85 8.4899 22.59 8.8199C22.45 9.0099 22.22 9.1099 22 9.1099Z" fill="url(#paint1_linear_582_9225)"/>
<path d="M17.2101 16.2398C17.0501 16.2398 16.8901 16.1898 16.7501 16.0798C13.8701 13.8498 10.1401 13.8498 7.25007 16.0798C6.92007 16.3298 6.45007 16.2698 6.20007 15.9498C5.95007 15.6198 6.01007 15.1498 6.33007 14.8998C9.77007 12.2398 14.2201 12.2398 17.6601 14.8998C17.9901 15.1498 18.0501 15.6198 17.7901 15.9498C17.6501 16.1398 17.4301 16.2398 17.2101 16.2398Z" fill="url(#paint2_linear_582_9225)"/>
<path d="M14.5999 19.9C14.4399 19.9 14.2799 19.85 14.1399 19.74C12.8399 18.73 11.1499 18.73 9.84992 19.74C9.51992 19.99 9.04992 19.93 8.79992 19.61C8.54992 19.28 8.60992 18.81 8.92992 18.56C10.7899 17.12 13.1899 17.12 15.0499 18.56C15.3799 18.81 15.4399 19.28 15.1799 19.61C15.0499 19.79 14.8299 19.9 14.5999 19.9Z" fill="url(#paint3_linear_582_9225)"/>
<defs>
<linearGradient id="paint0_linear_582_9225" x1="11.9936" y1="8.5874" x2="11.9936" y2="12.5899" gradientUnits="userSpaceOnUse">
<stop stop-color="#096ECB"/>
<stop offset="1" stop-color="#096ECB"/>
</linearGradient>
<linearGradient id="paint1_linear_582_9225" x1="12" y1="4.0874" x2="12" y2="9.1099" gradientUnits="userSpaceOnUse">
<stop stop-color="#096ECB"/>
<stop offset="1" stop-color="#096ECB"/>
</linearGradient>
<linearGradient id="paint2_linear_582_9225" x1="11.9987" y1="12.9048" x2="11.9987" y2="16.2398" gradientUnits="userSpaceOnUse">
<stop stop-color="#096ECB"/>
<stop offset="1" stop-color="#096ECB"/>
</linearGradient>
<linearGradient id="paint3_linear_582_9225" x1="11.9936" y1="17.48" x2="11.9936" y2="19.9" gradientUnits="userSpaceOnUse">
<stop stop-color="#096ECB"/>
<stop offset="1" stop-color="#096ECB"/>
</linearGradient>
</defs>
</svg>
