<svg width="27" height="28" viewBox="0 0 27 28" fill="none" xmlns="http://www.w3.org/2000/svg">
<path d="M13.9061 4.84725L14.3123 3.93344C13.7951 3.70361 13.2049 3.70361 12.6877 3.93344L5.89394 6.9529C5.09145 7.30956 4.6155 8.14799 4.72059 9.01986L5.47945 15.3156C5.68794 17.0453 6.53394 18.635 7.85211 19.7742L12.1923 23.525C12.9433 24.174 14.0567 24.174 14.8077 23.525L19.1479 19.7742C20.4661 18.635 21.3121 17.0453 21.5205 15.3156L22.2794 9.01986C22.3845 8.14799 21.9085 7.30956 21.1061 6.9529L14.3123 3.93344L13.9061 4.84725Z" stroke="#33363F" stroke-width="2" stroke-linecap="round"/>
<path d="M10.125 14L13.0613 17.045C13.2852 17.2773 13.6673 17.2398 13.8418 16.9683L18 10.5" stroke="#33363F" stroke-width="2" stroke-linecap="round"/>
</svg>
