<svg width="27" height="27" viewBox="0 0 21 27" fill="none" xmlns="http://www.w3.org/2000/svg">
<path d="M5.25 21.6H15.75V18.9H5.25V21.6ZM5.25 16.2H15.75V13.5H5.25V16.2ZM2.625 27C1.90313 27 1.28516 26.7356 0.771094 26.2069C0.257031 25.6781 0 25.0425 0 24.3V2.7C0 1.9575 0.257031 1.32187 0.771094 0.793125C1.28516 0.264375 1.90313 0 2.625 0H13.125L21 8.1V24.3C21 25.0425 20.743 25.6781 20.2289 26.2069C19.7148 26.7356 19.0969 27 18.375 27H2.625ZM11.8125 9.45V2.7H2.625V24.3H18.375V9.45H11.8125Z" fill="#B1B1B1"/>
</svg>
