<svg width="27" height="27" viewBox="0 0 35 36" fill="" xmlns="http://www.w3.org/2000/svg">
<path d="M1.45831 31.5V28.5H33.5416V31.5H1.45831ZM5.83331 27C5.03123 27 4.3446 26.7063 3.77342 26.1188C3.20224 25.5312 2.91665 24.825 2.91665 24V7.5C2.91665 6.675 3.20224 5.96875 3.77342 5.38125C4.3446 4.79375 5.03123 4.5 5.83331 4.5H29.1666C29.9687 4.5 30.6554 4.79375 31.2265 5.38125C31.7977 5.96875 32.0833 6.675 32.0833 7.5V24C32.0833 24.825 31.7977 25.5312 31.2265 26.1188C30.6554 26.7063 29.9687 27 29.1666 27H5.83331ZM5.83331 24H29.1666V7.5H5.83331V24Z" fill="#B1B1B1"/>
</svg>
